<?xml version="1.0" encoding="UTF-8"?>
<!DOCTYPE svg PUBLIC "-//W3C//DTD SVG 1.1//EN" "http://www.w3.org/Graphics/SVG/1.1/DTD/svg11.dtd">
<!-- Creator: CorelDRAW 2019 (64-Bit) -->
<svg xmlns="http://www.w3.org/2000/svg" xml:space="preserve" width="42.3332mm" height="42.3332mm" version="1.1" style="shape-rendering:geometricPrecision; text-rendering:geometricPrecision; image-rendering:optimizeQuality; fill-rule:evenodd; clip-rule:evenodd"
viewBox="0 0 4233.32 4233.32"
 xmlns:xlink="http://www.w3.org/1999/xlink">
 <defs>
  <style type="text/css">
   <![CDATA[
    .str0 {stroke:#004192;stroke-width:8.47;stroke-miterlimit:22.9256}
    .str1 {stroke:#FF8314;stroke-width:8.47;stroke-miterlimit:22.9256}
    .fil0 {fill:#004192}
    .fil1 {fill:#FF8314}
   ]]>
  </style>
 </defs>
 <g id="Capa_x0020_1">
  <metadata id="CorelCorpID_0Corel-Layer"/>
  <path class="fil0 str0" d="M1189.56 3704.16l670.68 0 0 -916.62c-225.91,108.71 -449.64,191.41 -670.36,256.82l-0.32 659.8z"/>
  <path class="fil1 str1" d="M1188.61 3044.65c998.58,-375.43 1709.1,-974.52 2257.98,-1699.07l-1028.39 424.77 469.48 0c-442.23,536.23 -1000.93,967.84 -1699.07,1274.3z"/>
  <path class="fil0 str0" d="M1193.08 3044.36c899.74,-342.76 1652.35,-931.19 2253.51,-1698.78l-357.71 1117.79 -22.36 -480.64c-181.8,208.83 -467.63,379.12 -732.65,563.37 -508.08,353.21 -1145.2,499.95 -1140.79,498.26z"/>
  <path class="fil1 str1" d="M1490.42 2608.68c296.84,-311.82 472.04,-657.59 487.06,-1071.67 -109.1,30.95 -161.86,105.52 -117.74,278.26 -104.88,-121.15 -97.27,-181.03 -66.33,-254.15 41.01,-96.88 177.66,-193.2 367.69,-204.37 -61.55,526.54 -277.86,948.7 -670.68,1251.93z"/>
  <path class="fil0 str0" d="M2163.77 1358.71c-51.46,509.35 -292.04,938.53 -673.35,1249.97 241.82,-110.29 440.28,-310.83 586.66,-601.68 251.72,13.23 174.38,118.08 -58.64,324.2 413.39,-286.73 468.02,-418.68 122.97,-480.68l111.77 -268.27c263.44,-10.69 344.24,-116.84 292.69,-360.98 -33.19,245.49 -156.97,273.5 -382.1,137.44z"/>
  <path class="fil1 str1" d="M2200.68 1176.95l-41.31 127.62c-70.49,-22.82 -109.12,-98.44 -86.3,-168.93 22.81,-70.49 98.43,-109.13 168.92,-86.31l-41.31 127.62z"/>
  <path class="fil0 str0" d="M2201.31 1177.43l43.23 -126.98c70.14,23.88 107.63,100.07 83.75,170.21 -23.88,70.13 -100.07,107.62 -170.21,83.75l43.23 -126.98z"/>
  <path class="fil0 str0" d="M1132.74 2183.93l413.58 -234.74 -11.17 -1039.55c520.83,-52.47 1060.92,-22.53 1609.63,44.73l156.48 -89.44c-591.2,-328.52 -1314.56,-417.06 -2168.52,-268.27l0 1587.27z"/>
  <path class="fil0 str0" d="M1048.17 730.82l134.13 0 0 558.89 -134.13 0c-36.31,-171.47 -36.28,-357.79 0,-558.89z"/>
  <path class="fil0 str0" d="M1048.17 1479.74l134.13 0 0 558.89 -134.13 0c-36.31,-171.48 -36.28,-357.79 0,-558.89z"/>
  <path class="fil0 str0" d="M1892.85 462.52l0 134.14 -558.89 0 0 -134.14c171.48,-36.3 357.79,-36.28 558.89,0z"/>
 </g>
</svg>
